<svg id="svg" version="1.1" xmlns="http://www.w3.org/2000/svg" xmlns:xlink="http://www.w3.org/1999/xlink" width="400" height="411.9106699751861" viewBox="0, 0, 400,411.9106699751861"><g id="svgg"><path id="path0" d="M71.064 63.658 C 70.715 76.452,70.781 305.783,71.136 313.035 C 71.340 317.193,71.568 318.826,72.006 319.268 C 72.333 319.598,74.580 321.992,77.000 324.588 C 79.420 327.185,82.840 330.791,84.600 332.602 C 88.635 336.754,99.401 348.018,112.316 361.600 C 114.303 363.690,116.046 365.284,116.189 365.142 C 116.332 365.000,116.539 336.470,116.649 301.742 C 116.759 267.014,116.931 238.195,117.032 237.700 C 117.315 236.311,117.636 236.556,120.186 240.100 C 121.492 241.915,122.705 243.460,122.880 243.533 C 123.056 243.607,123.200 243.830,123.200 244.030 C 123.200 244.230,123.547 244.800,123.971 245.297 C 124.396 245.794,127.353 249.710,130.542 254.000 C 133.732 258.290,136.493 261.980,136.677 262.200 C 136.861 262.420,138.438 264.580,140.181 267.000 C 142.944 270.836,144.216 272.548,145.541 274.214 C 145.723 274.442,147.098 276.332,148.598 278.414 C 150.098 280.496,151.749 282.740,152.268 283.400 C 153.631 285.133,153.533 285.000,156.998 289.800 C 158.745 292.220,160.279 294.290,160.406 294.400 C 160.533 294.510,162.339 296.939,164.419 299.797 C 167.627 304.206,175.263 314.502,176.288 315.800 C 176.462 316.020,177.863 317.909,179.402 319.998 C 180.941 322.086,182.420 324.066,182.688 324.398 C 183.169 324.990,193.797 339.303,195.122 341.141 C 197.625 344.614,197.457 344.575,199.212 342.100 C 199.953 341.055,200.665 340.110,200.794 340.000 C 200.923 339.890,202.274 338.090,203.796 336.000 C 205.317 333.910,206.714 332.020,206.900 331.800 C 207.087 331.580,208.434 329.780,209.894 327.800 C 211.354 325.820,212.695 324.140,212.874 324.067 C 213.053 323.993,213.200 323.721,213.200 323.463 C 213.200 323.204,213.610 322.544,214.111 321.996 C 214.612 321.448,216.153 319.427,217.535 317.505 C 218.917 315.582,220.268 313.782,220.537 313.505 C 220.806 313.227,222.437 311.035,224.160 308.633 C 225.884 306.231,227.450 304.071,227.641 303.833 C 229.127 301.979,230.232 300.504,232.611 297.200 C 234.116 295.110,235.584 293.162,235.873 292.871 C 236.163 292.581,236.400 292.210,236.400 292.047 C 236.400 291.884,236.718 291.402,237.107 290.975 C 237.496 290.549,239.058 288.490,240.577 286.400 C 242.097 284.310,243.454 282.510,243.593 282.400 C 243.732 282.290,245.716 279.590,248.001 276.400 C 250.287 273.210,252.299 270.420,252.473 270.200 C 252.646 269.980,253.213 269.260,253.732 268.600 C 254.251 267.940,255.902 265.690,257.401 263.600 C 258.901 261.510,260.241 259.710,260.379 259.600 C 260.516 259.490,261.874 257.690,263.396 255.600 C 264.917 253.510,266.315 251.620,266.503 251.400 C 266.691 251.180,268.368 248.930,270.231 246.400 C 272.094 243.870,273.842 241.530,274.115 241.200 C 274.389 240.870,275.228 239.742,275.980 238.693 C 278.220 235.565,278.174 234.996,278.278 267.111 C 278.474 327.725,278.748 364.881,279.001 365.134 C 279.144 365.278,280.351 364.226,281.682 362.797 C 283.013 361.369,287.274 356.895,291.151 352.856 C 295.028 348.816,298.290 345.371,298.400 345.200 C 298.510 345.029,302.047 341.314,306.259 336.944 C 310.472 332.575,314.585 328.280,315.399 327.400 C 316.214 326.520,318.190 324.432,319.792 322.759 C 321.394 321.086,323.041 319.204,323.452 318.577 C 324.266 317.335,324.656 68.412,323.861 58.293 L 323.522 53.987 290.261 54.141 C 269.756 54.236,256.003 54.456,254.400 54.715 C 250.133 55.403,246.457 56.364,244.705 57.249 C 244.323 57.442,243.825 57.600,243.597 57.600 C 242.412 57.600,230.800 63.892,229.600 65.185 C 229.490 65.303,228.410 66.202,227.200 67.182 C 220.884 72.298,213.677 82.125,211.199 89.000 C 211.041 89.440,210.616 90.481,210.255 91.314 C 209.895 92.146,209.600 93.093,209.600 93.419 C 209.600 93.745,209.441 94.323,209.247 94.705 C 207.449 98.243,206.397 111.103,207.324 118.200 C 209.100 131.792,216.886 145.750,227.407 154.200 C 228.502 155.080,229.637 156.025,229.928 156.300 C 230.219 156.575,230.590 156.800,230.753 156.800 C 230.916 156.800,231.408 157.115,231.846 157.500 C 232.917 158.440,233.735 158.933,236.800 160.484 C 238.230 161.208,239.460 161.935,239.533 162.100 C 239.607 162.265,239.977 162.400,240.357 162.400 C 240.736 162.400,241.396 162.664,241.824 162.987 C 242.251 163.310,242.917 163.580,243.305 163.587 C 243.693 163.594,244.323 163.762,244.705 163.960 C 245.384 164.312,248.193 165.148,251.400 165.953 C 256.350 167.195,267.432 167.520,272.295 166.565 C 273.601 166.309,274.841 167.520,273.672 167.909 C 273.412 167.996,273.200 168.244,273.200 168.460 C 273.200 168.796,271.432 171.396,270.793 172.000 C 270.677 172.110,270.240 172.735,269.823 173.390 C 269.406 174.044,268.912 174.764,268.727 174.990 C 268.541 175.215,265.851 179.000,262.750 183.400 C 259.648 187.800,256.951 191.460,256.755 191.533 C 256.560 191.607,256.400 191.832,256.400 192.034 C 256.400 192.394,232.546 226.006,232.011 226.400 C 231.862 226.510,231.399 227.185,230.984 227.900 C 230.568 228.615,230.086 229.200,229.914 229.200 C 229.741 229.200,229.600 229.470,229.600 229.800 C 229.600 230.130,229.432 230.400,229.227 230.400 C 229.022 230.400,228.750 230.728,228.622 231.129 C 228.495 231.531,228.070 232.206,227.679 232.629 C 226.935 233.435,224.880 236.266,223.240 238.747 C 222.711 239.546,222.163 240.290,222.022 240.400 C 221.881 240.510,219.445 243.840,216.609 247.800 C 213.774 251.760,211.306 255.060,211.127 255.133 C 210.947 255.207,210.800 255.479,210.800 255.737 C 210.800 255.996,210.350 256.693,209.800 257.287 C 209.250 257.880,208.800 258.460,208.800 258.575 C 208.800 258.895,203.451 266.181,203.104 266.333 C 202.937 266.407,202.797 266.677,202.792 266.933 C 202.788 267.190,202.158 268.118,201.392 268.996 C 200.627 269.873,200.000 270.722,200.000 270.882 C 200.000 271.042,199.468 271.716,198.819 272.381 C 197.648 273.579,196.400 273.687,196.400 272.591 C 196.400 272.302,196.242 272.007,196.049 271.933 C 195.856 271.860,192.671 267.570,188.971 262.400 C 185.272 257.230,182.010 252.762,181.722 252.471 C 181.435 252.181,181.200 251.821,181.200 251.671 C 181.199 251.522,180.749 250.877,180.200 250.238 C 179.650 249.599,179.200 248.969,179.199 248.838 C 179.199 248.707,178.659 247.970,178.000 247.200 C 177.341 246.430,176.801 245.678,176.801 245.529 C 176.800 245.379,176.557 245.014,176.260 244.717 C 175.366 243.824,126.800 175.747,126.800 175.388 C 126.800 175.266,126.442 174.782,126.004 174.312 C 124.559 172.761,121.169 167.492,121.327 167.042 C 121.411 166.799,121.913 166.651,122.440 166.714 C 130.715 167.699,139.404 167.061,146.054 164.980 C 147.073 164.661,148.201 164.400,148.559 164.400 C 148.918 164.400,149.523 164.240,149.905 164.044 C 150.287 163.849,151.230 163.419,152.000 163.089 C 157.179 160.870,163.482 157.098,166.783 154.242 C 171.214 150.409,177.600 143.197,177.600 142.027 C 177.600 141.792,177.780 141.600,178.000 141.600 C 178.220 141.600,178.400 141.352,178.400 141.049 C 178.400 140.746,178.634 140.304,178.921 140.066 C 179.395 139.672,181.360 135.895,182.908 132.400 C 187.829 121.292,188.433 105.095,184.387 92.800 C 183.330 89.588,178.921 80.489,177.991 79.600 C 177.876 79.490,177.443 78.860,177.028 78.200 C 174.413 74.033,166.705 66.384,162.900 64.180 C 162.185 63.766,161.600 63.286,161.600 63.114 C 161.600 62.941,161.440 62.800,161.244 62.800 C 161.049 62.800,159.714 62.113,158.277 61.274 C 154.227 58.907,145.763 55.593,143.780 55.598 C 143.329 55.599,142.789 55.436,142.580 55.235 C 141.778 54.465,136.377 54.312,104.364 54.152 L 71.328 53.987 71.064 63.658 " stroke="none" fill="#040404" fill-rule="evenodd"></path><path id="path1" d="M0.000 205.800 L 0.000 411.600 200.000 411.600 L 400.000 411.600 400.000 205.800 L 400.000 0.000 200.000 0.000 L 0.000 0.000 0.000 205.800 M138.600 53.624 C 139.480 53.847,141.100 54.184,142.200 54.372 C 143.300 54.560,145.190 55.016,146.400 55.384 C 147.610 55.752,149.095 56.152,149.700 56.272 C 150.305 56.392,150.800 56.650,150.800 56.845 C 150.800 57.040,151.057 57.200,151.372 57.200 C 152.095 57.200,156.375 59.222,159.000 60.803 C 160.100 61.466,161.315 62.117,161.700 62.250 C 162.085 62.384,162.400 62.640,162.400 62.820 C 162.400 62.999,162.728 63.250,163.129 63.378 C 163.531 63.505,164.206 63.928,164.629 64.317 C 165.053 64.706,166.118 65.559,166.995 66.212 C 169.072 67.759,173.493 72.166,175.008 74.200 C 175.664 75.080,176.605 76.248,177.100 76.796 C 177.595 77.344,178.000 78.019,178.000 78.296 C 178.000 78.573,178.139 78.800,178.309 78.800 C 178.479 78.800,178.972 79.475,179.405 80.300 C 179.838 81.125,180.294 81.890,180.418 82.000 C 180.658 82.213,183.869 88.850,184.385 90.200 C 185.245 92.450,186.667 97.608,186.976 99.600 C 187.096 100.370,187.367 101.810,187.579 102.800 C 188.085 105.158,188.065 116.042,187.550 118.600 C 187.329 119.700,187.060 121.320,186.951 122.200 C 186.843 123.080,186.610 124.160,186.433 124.600 C 186.257 125.040,185.796 126.480,185.410 127.800 C 184.337 131.465,181.025 138.836,180.318 139.133 C 180.143 139.207,180.000 139.492,180.000 139.767 C 180.000 140.279,177.211 144.447,176.175 145.482 C 175.859 145.799,175.600 146.212,175.600 146.402 C 175.600 146.832,166.863 155.600,166.435 155.600 C 166.263 155.600,165.690 155.984,165.161 156.453 C 163.880 157.591,160.138 160.000,159.653 160.000 C 159.440 160.000,159.207 160.143,159.133 160.318 C 158.871 160.946,151.333 164.387,148.000 165.401 C 143.731 166.700,143.335 166.800,142.433 166.800 C 141.933 166.800,140.567 167.078,139.400 167.417 C 137.745 167.898,135.633 168.009,129.837 167.917 C 125.746 167.853,122.399 167.846,122.400 167.903 C 122.400 167.960,126.630 173.943,131.800 181.200 C 136.970 188.457,141.200 194.560,141.200 194.764 C 141.200 194.967,141.354 195.193,141.542 195.267 C 141.915 195.412,151.200 208.237,151.200 208.607 C 151.200 208.732,151.650 209.320,152.200 209.913 C 152.750 210.507,153.200 211.137,153.200 211.313 C 153.200 211.490,153.650 212.120,154.200 212.713 C 154.750 213.307,155.200 214.004,155.200 214.263 C 155.200 214.521,155.355 214.793,155.545 214.867 C 155.735 214.940,160.448 221.390,166.020 229.200 C 171.591 237.010,176.296 243.460,176.475 243.533 C 176.654 243.607,176.800 243.839,176.800 244.050 C 176.800 244.261,176.979 244.651,177.197 244.917 C 179.390 247.584,180.505 249.052,180.877 249.758 C 181.121 250.221,181.435 250.690,181.575 250.800 C 182.116 251.224,186.000 256.807,186.000 257.161 C 186.000 257.366,186.154 257.593,186.342 257.667 C 186.529 257.740,188.545 260.410,190.820 263.600 C 193.095 266.790,195.070 269.490,195.209 269.600 C 195.347 269.710,195.801 270.385,196.216 271.100 C 196.989 272.429,198.400 272.881,198.400 271.800 C 198.400 271.470,198.539 271.200,198.709 271.200 C 198.879 271.200,199.357 270.570,199.772 269.800 C 200.187 269.030,200.666 268.400,200.836 268.400 C 201.007 268.400,201.247 268.085,201.371 267.700 C 201.495 267.315,202.137 266.370,202.797 265.600 C 203.458 264.830,203.999 264.078,203.999 263.929 C 204.000 263.779,204.231 263.419,204.513 263.129 C 204.795 262.838,209.150 256.840,214.191 249.800 C 219.232 242.760,223.591 236.762,223.878 236.471 C 224.165 236.181,224.400 235.821,224.401 235.671 C 224.401 235.522,224.941 234.770,225.600 234.000 C 226.259 233.230,226.799 232.478,226.799 232.329 C 226.800 232.179,227.031 231.819,227.314 231.529 C 227.597 231.238,228.452 230.100,229.214 229.000 C 229.976 227.900,230.698 226.910,230.818 226.800 C 230.939 226.690,235.007 221.020,239.860 214.200 C 244.712 207.380,252.759 196.081,257.741 189.091 C 262.724 182.101,266.800 176.206,266.800 175.991 C 266.800 175.776,266.935 175.600,267.100 175.599 C 267.265 175.599,268.030 174.656,268.800 173.503 C 269.570 172.351,270.513 171.060,270.895 170.634 C 271.278 170.208,271.695 169.531,271.822 169.129 C 271.950 168.728,272.252 168.400,272.494 168.400 C 272.735 168.400,272.810 168.276,272.658 168.125 C 272.507 167.974,268.832 167.892,264.492 167.942 C 259.581 167.999,256.071 167.867,255.200 167.592 C 254.430 167.349,252.900 166.991,251.800 166.798 C 247.959 166.122,244.011 164.944,243.341 164.274 C 243.190 164.123,242.839 164.000,242.561 164.000 C 241.654 164.000,235.360 160.841,232.597 159.000 C 231.937 158.560,231.106 158.020,230.750 157.800 C 227.640 155.876,222.262 150.944,219.397 147.390 C 218.519 146.300,217.487 145.060,217.105 144.634 C 216.722 144.208,216.305 143.531,216.178 143.129 C 216.050 142.728,215.778 142.400,215.573 142.400 C 215.368 142.400,215.200 142.246,215.200 142.057 C 215.200 141.869,214.300 140.151,213.200 138.239 C 212.100 136.327,211.200 134.606,211.200 134.414 C 211.200 134.222,210.900 133.465,210.532 132.732 C 209.315 130.303,209.200 130.016,209.200 129.400 C 209.200 129.064,209.028 128.477,208.817 128.095 C 208.166 126.912,207.200 122.950,207.200 121.462 C 207.200 120.684,207.020 119.936,206.800 119.800 C 206.258 119.465,206.258 101.735,206.800 101.400 C 207.020 101.264,207.200 100.516,207.200 99.738 C 207.200 98.250,208.166 94.288,208.817 93.105 C 209.028 92.723,209.200 92.136,209.200 91.800 C 209.200 91.464,209.371 90.877,209.581 90.495 C 209.790 90.113,210.259 89.080,210.624 88.200 C 215.868 75.539,226.444 64.637,239.528 58.404 C 240.918 57.742,242.303 57.200,242.604 57.200 C 242.906 57.200,243.264 57.020,243.400 56.800 C 243.536 56.580,244.051 56.400,244.544 56.400 C 245.037 56.400,245.611 56.230,245.820 56.023 C 246.234 55.612,248.654 54.946,251.800 54.376 C 252.900 54.176,254.610 53.838,255.600 53.624 C 257.557 53.201,323.086 53.028,324.167 53.443 C 324.743 53.664,324.799 65.723,324.791 186.143 L 324.782 318.600 322.552 321.000 C 318.678 325.167,303.229 341.404,298.200 346.595 C 296.880 347.957,293.190 351.832,290.000 355.206 C 280.276 365.489,278.857 366.886,278.319 366.706 C 277.898 366.566,277.762 354.408,277.598 302.167 C 277.487 266.765,277.349 237.980,277.292 238.200 C 277.234 238.420,276.650 239.209,275.994 239.954 C 275.337 240.699,274.800 241.430,274.800 241.579 C 274.800 241.727,274.480 242.198,274.090 242.625 C 273.699 243.051,272.248 244.973,270.866 246.895 C 269.483 248.818,268.130 250.618,267.858 250.895 C 267.586 251.173,266.022 253.249,264.382 255.509 C 262.742 257.768,261.037 260.108,260.593 260.709 C 260.148 261.309,258.718 263.240,257.415 265.000 C 256.111 266.760,254.900 268.260,254.722 268.333 C 254.545 268.407,254.400 268.679,254.400 268.937 C 254.400 269.196,253.992 269.856,253.493 270.404 C 252.994 270.952,250.895 273.740,248.829 276.600 C 246.763 279.460,244.956 281.890,244.815 282.000 C 244.673 282.110,242.695 284.810,240.420 288.000 C 238.144 291.190,236.167 293.890,236.027 294.000 C 235.886 294.110,234.530 295.910,233.013 298.000 C 231.496 300.090,230.108 301.860,229.927 301.933 C 229.747 302.007,229.600 302.279,229.600 302.537 C 229.600 302.796,229.193 303.456,228.695 304.004 C 228.198 304.552,226.551 306.710,225.037 308.800 C 223.522 310.890,222.129 312.660,221.941 312.733 C 221.754 312.807,221.597 313.077,221.594 313.333 C 221.590 313.590,221.095 314.365,220.494 315.056 C 219.892 315.747,218.320 317.801,217.000 319.622 C 215.680 321.442,214.412 323.127,214.182 323.366 C 213.952 323.605,212.459 325.600,210.864 327.800 C 209.269 330.000,206.610 333.600,204.955 335.800 C 203.300 338.000,201.116 340.925,200.101 342.300 C 197.463 345.873,197.560 345.912,192.844 339.425 C 191.395 337.431,189.802 335.352,189.305 334.804 C 188.807 334.256,188.400 333.596,188.400 333.337 C 188.400 333.079,188.246 332.807,188.059 332.733 C 187.871 332.660,186.481 330.890,184.969 328.800 C 183.458 326.710,182.113 324.910,181.981 324.800 C 181.849 324.690,180.500 322.890,178.985 320.800 C 177.469 318.710,176.116 316.910,175.979 316.800 C 175.841 316.690,174.500 314.890,172.999 312.800 C 171.498 310.710,170.120 308.940,169.935 308.867 C 169.751 308.793,169.600 308.561,169.600 308.350 C 169.600 307.988,169.273 307.523,168.100 306.215 C 167.825 305.908,167.600 305.479,167.600 305.262 C 167.600 305.045,167.454 304.807,167.276 304.733 C 167.099 304.660,166.154 303.520,165.176 302.200 C 164.199 300.880,163.175 299.562,162.900 299.271 C 162.625 298.981,162.400 298.619,162.400 298.467 C 162.400 298.315,161.773 297.473,161.008 296.596 C 160.242 295.718,159.612 294.790,159.608 294.533 C 159.603 294.277,159.446 294.007,159.259 293.933 C 159.071 293.860,157.678 292.090,156.163 290.000 C 154.649 287.910,153.002 285.752,152.505 285.204 C 152.007 284.656,151.600 283.996,151.600 283.737 C 151.600 283.479,151.448 283.207,151.263 283.133 C 151.077 283.060,149.503 281.020,147.764 278.600 C 146.026 276.180,144.410 274.020,144.174 273.800 C 143.939 273.580,142.146 271.150,140.192 268.400 C 138.237 265.650,136.526 263.310,136.389 263.200 C 136.252 263.090,134.900 261.290,133.385 259.200 C 131.869 257.110,130.519 255.310,130.385 255.200 C 130.250 255.090,128.897 253.290,127.377 251.200 C 125.858 249.110,124.296 247.051,123.907 246.625 C 123.518 246.198,123.200 245.731,123.200 245.586 C 123.200 245.441,122.821 244.890,122.357 244.361 C 121.893 243.833,120.678 242.234,119.657 240.809 L 117.800 238.217 117.479 302.409 C 117.303 337.714,117.021 366.738,116.853 366.906 C 116.548 367.212,113.521 364.182,103.143 353.183 C 100.141 350.002,96.385 346.050,94.797 344.400 C 93.208 342.750,89.544 338.904,86.654 335.854 C 83.764 332.804,80.320 329.193,79.000 327.830 C 77.680 326.467,75.205 323.863,73.500 322.043 L 70.400 318.734 70.400 186.233 C 70.400 113.358,70.520 53.613,70.667 53.467 C 71.115 53.019,136.811 53.171,138.600 53.624 " stroke="none" fill="#fbfbfb" fill-rule="evenodd"></path><path id="path2" d="M70.580 53.708 C 70.468 54.000,70.432 56.750,70.500 59.819 L 70.625 65.400 70.712 59.491 L 70.800 53.582 104.700 53.716 C 123.345 53.790,139.140 53.978,139.800 54.134 C 140.984 54.413,140.986 54.410,140.000 53.909 C 138.491 53.141,70.872 52.946,70.580 53.708 M255.245 53.632 C 252.783 54.116,252.564 54.579,255.000 54.151 C 256.100 53.958,272.120 53.800,290.600 53.800 L 324.200 53.800 324.403 89.000 L 324.607 124.200 324.703 88.943 C 324.791 57.105,324.739 53.662,324.167 53.443 C 323.179 53.064,257.216 53.245,255.245 53.632 M143.800 55.027 C 144.900 55.342,146.398 55.796,147.130 56.036 C 147.861 56.277,148.554 56.379,148.669 56.264 C 148.784 56.149,148.095 55.845,147.139 55.588 C 146.183 55.330,144.987 54.958,144.481 54.760 C 143.976 54.562,143.166 54.413,142.681 54.428 C 142.197 54.443,142.700 54.713,143.800 55.027 M249.600 54.761 C 249.270 54.946,248.331 55.217,247.514 55.364 C 246.697 55.511,245.902 55.835,245.748 56.083 C 245.556 56.395,245.707 56.439,246.234 56.224 C 246.655 56.052,248.260 55.586,249.800 55.188 C 251.639 54.712,252.188 54.457,251.400 54.444 C 250.740 54.433,249.930 54.576,249.600 54.761 M150.400 57.045 C 151.170 57.390,152.113 57.836,152.495 58.036 C 152.877 58.236,153.417 58.394,153.695 58.386 C 154.443 58.365,152.319 57.231,151.500 57.214 C 151.115 57.206,150.800 57.020,150.800 56.800 C 150.800 56.580,150.395 56.404,149.900 56.409 C 149.172 56.416,149.268 56.538,150.400 57.045 M243.400 56.800 C 243.264 57.020,242.906 57.200,242.604 57.200 C 241.481 57.200,235.184 60.449,231.900 62.723 C 229.031 64.709,229.623 64.628,232.748 62.606 C 235.134 61.063,238.035 59.586,243.600 57.081 C 244.370 56.735,244.696 56.440,244.324 56.426 C 243.952 56.412,243.536 56.580,243.400 56.800 M154.400 58.574 C 154.400 58.670,155.525 59.316,156.900 60.010 C 159.740 61.442,159.586 61.039,156.686 59.449 C 154.757 58.392,154.400 58.255,154.400 58.574 M161.600 62.581 C 161.600 62.680,162.410 63.319,163.400 64.000 C 164.390 64.681,165.200 65.078,165.200 64.882 C 165.200 64.686,164.570 64.187,163.800 63.772 C 163.030 63.357,162.400 62.879,162.400 62.709 C 162.400 62.539,162.220 62.400,162.000 62.400 C 161.780 62.400,161.600 62.481,161.600 62.581 M227.200 66.140 C 221.874 70.350,215.358 78.280,212.854 83.600 C 212.286 84.807,212.295 84.795,216.116 78.950 C 218.755 74.914,224.628 68.462,228.200 65.675 C 229.080 64.989,229.710 64.421,229.600 64.414 C 229.490 64.406,228.410 65.183,227.200 66.140 M168.480 67.952 C 170.174 69.535,172.595 71.948,173.859 73.315 C 175.318 74.891,175.731 75.215,174.988 74.200 C 173.492 72.157,169.063 67.745,166.995 66.237 C 166.118 65.598,166.786 66.369,168.480 67.952 M177.877 78.760 C 178.935 80.277,179.851 81.472,179.912 81.414 C 180.110 81.229,178.613 78.805,178.300 78.803 C 178.135 78.801,177.994 78.575,177.987 78.300 C 177.972 77.749,176.624 76.000,176.213 76.000 C 176.071 76.000,176.820 77.242,177.877 78.760 M181.246 84.427 C 181.924 85.762,182.550 86.783,182.638 86.696 C 182.868 86.465,180.655 82.017,180.306 82.008 C 180.144 82.003,180.567 83.092,181.246 84.427 M211.685 85.613 C 211.418 86.040,211.207 86.617,211.216 86.895 C 211.225 87.173,211.509 86.889,211.847 86.265 C 212.550 84.968,212.418 84.438,211.685 85.613 M182.800 87.256 C 182.800 88.003,184.769 92.043,184.783 91.324 C 184.792 90.842,184.620 90.336,184.400 90.200 C 184.180 90.064,183.994 89.648,183.987 89.276 C 183.976 88.693,182.800 86.691,182.800 87.256 M210.411 88.645 C 210.185 89.280,209.820 90.113,209.600 90.495 C 209.380 90.877,209.208 91.507,209.217 91.895 C 209.226 92.283,209.676 91.535,210.217 90.233 C 210.757 88.931,211.114 87.781,211.011 87.677 C 210.907 87.574,210.637 88.009,210.411 88.645 M184.991 93.200 C 185.677 95.992,186.459 98.590,186.671 98.783 C 187.116 99.188,185.719 93.705,185.156 92.835 C 184.836 92.341,184.799 92.422,184.991 93.200 M208.637 93.243 C 207.909 95.471,207.204 98.477,207.226 99.262 C 207.240 99.778,207.673 98.580,208.187 96.600 C 208.700 94.620,209.053 92.929,208.970 92.843 C 208.887 92.756,208.737 92.936,208.637 93.243 M187.029 101.400 C 187.164 102.060,187.415 105.930,187.587 110.000 L 187.900 117.400 187.815 109.800 C 187.761 104.946,187.559 101.839,187.257 101.200 C 186.793 100.220,186.788 100.224,187.029 101.400 M206.692 101.442 C 206.531 101.602,206.418 102.468,206.440 103.367 L 206.480 105.000 206.849 103.427 C 207.239 101.762,207.176 100.958,206.692 101.442 M206.447 117.876 C 206.421 118.798,206.580 119.664,206.800 119.800 C 207.252 120.079,207.252 119.175,206.800 117.400 C 206.512 116.267,206.492 116.293,206.447 117.876 M187.053 118.941 C 186.886 119.788,186.841 120.575,186.955 120.688 C 187.258 120.991,187.697 118.985,187.514 118.132 C 187.420 117.690,187.237 118.011,187.053 118.941 M207.226 121.938 C 207.212 122.455,207.482 123.895,207.827 125.138 C 208.682 128.218,208.796 128.539,208.970 128.357 C 209.053 128.271,208.700 126.580,208.187 124.600 C 207.673 122.620,207.240 121.422,207.226 121.938 M186.049 124.200 C 185.760 125.300,185.336 126.701,185.108 127.313 C 184.879 127.925,184.794 128.527,184.918 128.652 C 185.043 128.776,185.357 128.095,185.616 127.139 C 185.876 126.183,186.266 125.019,186.483 124.553 C 186.701 124.086,186.810 123.366,186.727 122.953 C 186.636 122.501,186.364 123.001,186.049 124.200 M209.221 129.305 C 209.209 129.693,209.361 130.323,209.557 130.705 C 209.753 131.087,210.120 131.918,210.372 132.552 C 210.624 133.185,210.926 133.608,211.043 133.491 C 211.160 133.374,211.076 132.945,210.857 132.539 C 210.639 132.133,210.185 131.080,209.850 130.200 C 209.515 129.320,209.232 128.917,209.221 129.305 M183.282 132.588 C 181.932 135.902,181.900 136.720,183.238 133.700 C 183.701 132.655,184.272 131.395,184.507 130.901 C 184.742 130.406,184.839 129.905,184.722 129.788 C 184.604 129.671,183.957 130.931,183.282 132.588 M211.227 134.400 C 211.226 134.730,211.490 135.349,211.813 135.776 C 212.560 136.764,212.552 136.115,211.800 134.800 C 211.468 134.220,211.228 134.052,211.227 134.400 M181.257 136.857 C 180.975 137.309,180.832 137.766,180.940 137.873 C 181.047 137.981,181.344 137.678,181.600 137.200 C 181.856 136.722,181.998 136.265,181.917 136.184 C 181.836 136.103,181.539 136.406,181.257 136.857 M213.246 138.396 C 213.739 139.273,214.208 139.926,214.287 139.846 C 214.459 139.674,212.806 136.800,212.535 136.800 C 212.433 136.800,212.752 137.518,213.246 138.396 M178.621 141.522 C 177.985 142.555,177.104 143.805,176.663 144.300 C 176.221 144.795,176.028 145.200,176.233 145.200 C 176.674 145.200,180.215 140.082,179.955 139.821 C 179.857 139.723,179.256 140.489,178.621 141.522 M214.897 141.285 C 215.173 141.771,215.625 142.414,215.900 142.713 C 216.175 143.012,216.400 143.390,216.400 143.553 C 216.400 143.716,216.715 144.200,217.100 144.629 C 217.485 145.057,218.519 146.300,219.397 147.390 C 221.355 149.819,225.313 153.744,227.200 155.128 C 227.970 155.693,229.093 156.602,229.696 157.148 C 230.299 157.695,230.886 158.047,231.002 157.931 C 231.118 157.815,229.889 156.706,228.270 155.467 C 224.440 152.533,219.892 147.762,217.024 143.669 C 214.825 140.530,213.838 139.424,214.897 141.285 M174.861 146.700 C 174.424 147.305,173.064 148.790,171.839 150.000 C 170.614 151.210,169.609 152.372,169.606 152.583 C 169.599 153.032,175.079 147.330,175.644 146.300 C 176.236 145.222,175.748 145.471,174.861 146.700 M167.200 154.437 C 166.210 155.324,165.760 155.870,166.200 155.650 C 167.378 155.061,169.756 152.734,169.100 152.812 C 169.045 152.819,168.190 153.550,167.200 154.437 M162.226 158.038 C 160.700 159.117,159.592 160.000,159.763 160.000 C 160.270 160.000,165.200 156.659,165.200 156.315 C 165.200 155.907,165.417 155.782,162.226 158.038 M156.624 161.413 C 156.196 161.736,156.027 162.000,156.247 162.000 C 156.467 162.000,156.996 161.736,157.424 161.413 C 157.851 161.090,158.020 160.825,157.800 160.825 C 157.580 160.825,157.051 161.090,156.624 161.413 M236.000 160.959 C 236.000 161.222,241.950 164.001,242.495 163.993 C 242.773 163.989,241.691 163.385,240.091 162.650 C 238.491 161.916,237.066 161.200,236.925 161.058 C 236.641 160.775,236.000 160.706,236.000 160.959 M152.800 163.224 C 152.470 163.431,150.580 164.137,148.600 164.792 C 146.620 165.447,145.360 165.981,145.800 165.979 C 146.675 165.973,150.659 164.674,151.075 164.259 C 151.217 164.116,151.618 163.994,151.967 163.987 C 152.315 163.980,152.949 163.710,153.376 163.387 C 154.225 162.746,153.768 162.616,152.800 163.224 M246.000 165.400 C 246.550 165.714,247.450 165.970,248.000 165.968 C 248.793 165.966,248.668 165.845,247.400 165.388 C 245.367 164.656,244.708 164.661,246.000 165.400 M143.000 166.400 L 142.200 166.744 143.000 166.766 C 143.440 166.778,144.070 166.613,144.400 166.400 C 145.195 165.886,144.196 165.886,143.000 166.400 M249.600 166.400 C 249.930 166.613,250.650 166.773,251.200 166.754 L 252.200 166.720 251.200 166.400 C 249.658 165.906,248.836 165.906,249.600 166.400 M137.800 167.266 C 136.920 167.478,133.005 167.595,129.100 167.526 C 125.195 167.457,122.000 167.535,122.000 167.699 C 122.000 168.077,124.805 172.000,125.075 172.000 C 125.185 172.000,124.628 171.100,123.838 169.999 C 123.047 168.899,122.400 167.954,122.400 167.899 C 122.399 167.845,125.774 167.850,129.900 167.910 C 135.540 167.993,137.846 167.879,139.200 167.450 C 141.231 166.806,140.245 166.677,137.800 167.266 M254.800 167.423 C 257.273 168.264,273.230 168.113,273.518 167.246 C 273.667 166.798,273.404 166.760,272.151 167.046 C 270.277 167.474,257.323 167.518,254.800 167.106 L 253.000 166.811 254.800 167.423 M271.519 169.603 C 270.642 171.143,270.902 171.142,272.000 169.600 C 272.470 168.940,272.707 168.401,272.527 168.403 C 272.347 168.404,271.893 168.944,271.519 169.603 M269.519 172.403 C 268.642 173.943,268.902 173.942,270.000 172.400 C 270.470 171.740,270.707 171.201,270.527 171.203 C 270.347 171.204,269.893 171.744,269.519 172.403 M126.000 173.600 C 126.470 174.260,126.944 174.800,127.054 174.800 C 127.164 174.800,126.870 174.260,126.400 173.600 C 125.930 172.940,125.456 172.400,125.346 172.400 C 125.236 172.400,125.530 172.940,126.000 173.600 M267.643 175.037 C 267.147 175.607,266.824 176.158,266.927 176.260 C 267.029 176.362,267.505 175.896,267.984 175.223 C 269.048 173.729,268.866 173.630,267.643 175.037 M128.094 176.559 C 128.863 177.713,131.715 181.750,133.775 184.600 C 134.853 186.091,136.316 188.190,138.604 191.525 C 139.858 193.353,140.968 194.765,141.071 194.663 C 141.258 194.475,127.680 175.200,127.360 175.200 C 127.265 175.200,127.596 175.812,128.094 176.559 M263.574 180.900 C 261.979 183.155,260.500 185.225,260.288 185.500 C 260.076 185.775,259.997 186.000,260.113 186.000 C 260.230 186.000,261.630 184.155,263.226 181.900 C 264.821 179.645,266.300 177.575,266.512 177.300 C 266.724 177.025,266.803 176.800,266.687 176.800 C 266.570 176.800,265.170 178.645,263.574 180.900 M258.800 187.600 C 258.330 188.260,258.036 188.800,258.146 188.800 C 258.256 188.800,258.730 188.260,259.200 187.600 C 259.670 186.940,259.964 186.400,259.854 186.400 C 259.744 186.400,259.270 186.940,258.800 187.600 M256.800 190.400 C 256.330 191.060,256.036 191.600,256.146 191.600 C 256.256 191.600,256.730 191.060,257.200 190.400 C 257.670 189.740,257.964 189.200,257.854 189.200 C 257.744 189.200,257.270 189.740,256.800 190.400 M248.770 201.700 C 244.979 207.035,241.703 211.625,241.490 211.900 C 241.276 212.175,241.197 212.400,241.312 212.400 C 241.428 212.400,243.283 209.925,245.435 206.900 C 247.587 203.875,249.449 201.310,249.574 201.200 C 249.698 201.090,250.411 200.100,251.157 199.000 C 251.903 197.900,253.314 195.875,254.292 194.500 C 255.270 193.125,255.978 192.000,255.866 192.000 C 255.754 192.000,252.561 196.365,248.770 201.700 M142.701 197.231 C 143.525 198.348,144.650 199.929,145.200 200.746 C 147.954 204.835,150.914 208.819,151.077 208.657 C 151.307 208.426,141.906 195.224,141.501 195.210 C 141.336 195.205,141.876 196.114,142.701 197.231 M151.600 209.502 C 151.600 210.000,153.168 211.939,153.187 211.463 C 153.194 211.278,152.840 210.669,152.400 210.109 C 151.960 209.550,151.600 209.276,151.600 209.502 M154.060 213.195 C 154.546 213.852,155.019 214.315,155.111 214.222 C 155.334 213.999,153.887 212.029,153.488 212.013 C 153.316 212.006,153.574 212.538,154.060 213.195 M237.357 217.700 C 235.438 220.395,233.695 222.825,233.484 223.100 C 233.274 223.375,233.197 223.600,233.313 223.600 C 233.430 223.600,234.834 221.755,236.435 219.500 C 238.036 217.245,239.785 214.815,240.321 214.100 C 240.856 213.385,241.194 212.800,241.071 212.800 C 240.948 212.800,239.277 215.005,237.357 217.700 M155.651 215.495 C 156.636 216.742,156.803 216.969,158.713 219.663 C 163.290 226.120,166.452 230.400,166.645 230.400 C 166.760 230.400,165.987 229.175,164.927 227.679 C 157.227 216.807,155.760 214.814,155.451 214.808 C 155.259 214.803,155.349 215.113,155.651 215.495 M232.000 225.200 C 231.530 225.860,231.236 226.400,231.346 226.400 C 231.456 226.400,231.930 225.860,232.400 225.200 C 232.870 224.540,233.164 224.000,233.054 224.000 C 232.944 224.000,232.470 224.540,232.000 225.200 M229.639 228.381 C 229.110 229.238,228.255 230.431,227.739 231.032 C 227.222 231.633,226.800 232.231,226.799 232.362 C 226.799 232.493,226.259 233.230,225.600 234.000 C 224.941 234.770,224.401 235.522,224.401 235.671 C 224.400 235.821,224.171 236.181,223.892 236.471 C 222.812 237.594,220.349 241.200,220.666 241.192 C 220.850 241.188,222.561 238.983,224.469 236.292 C 226.377 233.602,228.682 230.365,229.591 229.100 C 230.500 227.835,231.099 226.805,230.922 226.811 C 230.745 226.817,230.167 227.523,229.639 228.381 M167.680 232.100 C 168.216 232.815,170.420 235.882,172.578 238.916 C 174.736 241.950,176.608 244.325,176.739 244.194 C 176.870 244.064,176.792 243.831,176.566 243.678 C 176.340 243.525,174.130 240.565,171.655 237.100 C 169.181 233.635,167.055 230.800,166.931 230.800 C 166.807 230.800,167.144 231.385,167.680 232.100 M117.297 277.300 L 117.394 317.000 117.597 277.609 L 117.800 238.218 119.657 240.809 C 120.678 242.234,121.893 243.833,122.357 244.361 C 122.821 244.890,123.200 245.441,123.200 245.586 C 123.200 245.731,123.518 246.198,123.907 246.625 C 124.296 247.051,125.861 249.110,127.386 251.200 C 128.910 253.290,130.346 255.197,130.578 255.438 C 130.810 255.679,132.170 257.519,133.600 259.527 C 135.030 261.535,136.344 263.183,136.520 263.189 C 136.697 263.195,136.401 262.615,135.863 261.900 C 135.326 261.185,133.075 258.170,130.861 255.200 C 128.647 252.230,126.602 249.492,126.318 249.115 C 126.033 248.739,124.000 245.997,121.800 243.022 C 119.600 240.047,117.665 237.610,117.500 237.606 C 117.335 237.603,117.244 255.465,117.297 277.300 M276.283 239.000 C 275.669 239.770,275.289 240.400,275.439 240.400 C 275.736 240.400,276.574 239.412,277.221 238.300 C 277.857 237.207,277.503 237.471,276.283 239.000 M277.798 302.367 C 277.800 354.581,277.897 366.566,278.319 366.706 C 278.857 366.886,280.276 365.490,290.000 355.206 C 293.190 351.832,296.880 347.957,298.200 346.595 C 303.229 341.404,318.678 325.167,322.552 321.000 L 324.782 318.600 324.698 297.200 L 324.614 275.800 324.407 297.285 L 324.200 318.770 322.382 320.685 C 321.382 321.738,319.106 324.130,317.324 326.000 C 315.542 327.870,313.230 330.300,312.185 331.400 C 311.140 332.500,308.556 335.207,306.442 337.415 C 296.747 347.545,287.024 357.761,283.425 361.600 C 279.113 366.200,278.493 366.712,278.195 365.922 C 278.086 365.635,277.952 336.780,277.897 301.800 L 277.796 238.200 277.798 302.367 M274.000 242.000 C 273.530 242.660,273.299 243.200,273.487 243.200 C 273.674 243.200,274.146 242.660,274.536 242.000 C 274.926 241.340,275.157 240.800,275.050 240.800 C 274.942 240.800,274.470 241.340,274.000 242.000 M213.546 250.700 C 209.974 255.705,206.614 260.385,206.079 261.100 C 205.543 261.815,205.206 262.400,205.329 262.400 C 205.452 262.400,207.130 260.195,209.058 257.500 C 210.987 254.805,214.027 250.620,215.815 248.200 C 219.523 243.180,220.588 241.600,220.266 241.600 C 220.141 241.600,217.117 245.695,213.546 250.700 M270.579 246.700 C 269.296 248.405,267.983 250.115,267.661 250.500 C 267.339 250.885,267.239 251.196,267.438 251.191 C 267.637 251.187,268.340 250.427,269.000 249.503 C 269.660 248.578,270.885 246.872,271.722 245.711 C 274.059 242.470,273.207 243.207,270.579 246.700 M178.122 246.700 C 180.082 249.380,186.086 257.654,190.602 263.900 C 192.710 266.815,194.539 269.200,194.666 269.200 C 194.794 269.200,194.720 268.975,194.502 268.700 C 194.284 268.425,192.435 265.860,190.392 263.000 C 188.350 260.140,186.526 257.740,186.339 257.667 C 186.153 257.593,186.000 257.366,186.000 257.161 C 186.000 256.741,183.023 252.529,179.809 248.400 C 179.038 247.410,178.197 246.195,177.940 245.700 C 177.682 245.205,177.305 244.800,177.102 244.800 C 176.898 244.800,177.357 245.655,178.122 246.700 M266.000 252.800 C 265.530 253.460,265.236 254.000,265.346 254.000 C 265.456 254.000,265.930 253.460,266.400 252.800 C 266.870 252.140,267.164 251.600,267.054 251.600 C 266.944 251.600,266.470 252.140,266.000 252.800 M264.170 255.300 C 263.744 255.795,262.147 257.910,260.620 260.000 C 259.093 262.090,257.609 264.038,257.322 264.329 C 257.035 264.619,256.800 264.979,256.799 265.129 C 256.799 265.278,256.266 266.023,255.616 266.783 C 254.966 267.544,254.526 268.259,254.638 268.372 C 254.751 268.485,254.969 268.379,255.122 268.138 C 255.718 267.196,260.255 261.031,261.221 259.849 C 263.811 256.681,266.345 252.771,264.170 255.300 M204.229 263.500 C 204.105 263.885,203.462 264.830,202.800 265.600 C 202.138 266.370,201.495 267.315,201.371 267.700 C 201.247 268.085,201.017 268.400,200.859 268.400 C 200.702 268.400,200.251 268.985,199.859 269.700 L 199.145 271.000 200.168 269.800 C 202.027 267.620,205.250 262.800,204.848 262.800 C 204.631 262.800,204.353 263.115,204.229 263.500 M137.101 264.100 C 137.321 264.375,138.981 266.670,140.790 269.200 C 142.599 271.730,144.259 273.866,144.478 273.946 C 144.819 274.071,141.042 268.561,140.402 268.000 C 140.276 267.890,139.489 266.855,138.653 265.700 C 137.816 264.545,137.035 263.600,136.917 263.600 C 136.799 263.600,136.882 263.825,137.101 264.100 M251.538 272.300 C 250.153 274.225,248.874 275.980,248.694 276.200 C 247.129 278.114,244.516 281.834,244.642 281.967 C 244.842 282.178,244.476 282.647,248.836 276.600 C 250.898 273.740,252.994 270.952,253.493 270.404 C 254.331 269.484,254.644 268.800,254.227 268.800 C 254.132 268.800,252.922 270.375,251.538 272.300 M195.847 271.200 C 196.569 272.291,197.176 272.783,197.753 272.746 L 198.600 272.691 197.752 272.524 C 197.285 272.433,196.569 271.737,196.161 270.979 C 195.752 270.221,195.276 269.600,195.103 269.600 C 194.930 269.600,195.265 270.320,195.847 271.200 M145.658 275.700 C 146.544 276.964,150.794 282.832,151.065 283.167 C 151.139 283.258,151.283 283.251,151.384 283.149 C 151.485 283.048,151.170 282.490,150.684 281.908 C 150.198 281.326,148.739 279.399,147.443 277.625 C 145.183 274.533,143.769 273.008,145.658 275.700 M241.540 285.900 C 240.157 287.825,238.840 289.602,238.613 289.850 C 238.386 290.097,236.670 292.405,234.800 294.978 C 232.930 297.551,231.002 300.131,230.516 300.711 C 230.030 301.291,229.715 301.848,229.816 301.949 C 230.040 302.174,229.731 302.555,233.024 298.000 C 234.534 295.910,235.885 294.110,236.025 294.000 C 236.165 293.890,237.950 291.460,239.992 288.600 C 242.035 285.740,243.884 283.175,244.102 282.900 C 244.320 282.625,244.398 282.400,244.276 282.400 C 244.154 282.400,242.923 283.975,241.540 285.900 M151.606 283.900 C 151.610 284.065,152.105 284.763,152.706 285.450 C 153.308 286.138,154.970 288.340,156.400 290.344 C 157.830 292.348,159.151 293.990,159.336 293.994 C 159.520 293.997,159.250 293.480,158.736 292.845 C 158.221 292.210,156.475 289.870,154.855 287.645 C 152.011 283.738,151.593 283.256,151.606 283.900 M159.628 294.600 C 159.626 295.108,161.162 296.971,161.392 296.741 C 161.487 296.646,161.129 296.036,160.597 295.384 C 160.064 294.733,159.628 294.380,159.628 294.600 M162.286 298.300 C 162.673 298.905,163.172 299.598,163.395 299.841 C 163.618 300.083,164.520 301.294,165.400 302.532 C 166.280 303.770,167.138 304.787,167.308 304.791 C 167.477 304.796,166.330 303.090,164.759 301.000 C 161.971 297.291,160.872 296.091,162.286 298.300 M226.546 306.100 C 225.045 308.135,223.316 310.475,222.706 311.300 C 222.095 312.125,221.731 312.797,221.897 312.794 C 222.064 312.790,223.370 311.148,224.800 309.144 C 226.230 307.140,227.892 304.938,228.494 304.250 C 229.493 303.108,229.854 302.400,229.438 302.400 C 229.349 302.400,228.047 304.065,226.546 306.100 M167.614 305.329 C 167.606 305.509,167.854 305.911,168.164 306.221 C 168.475 306.532,168.810 307.014,168.910 307.293 C 169.009 307.572,169.197 307.703,169.328 307.584 C 169.458 307.466,169.129 306.836,168.597 306.184 C 168.064 305.533,167.622 305.148,167.614 305.329 M169.600 308.217 C 169.600 308.337,170.075 308.922,170.656 309.517 L 171.712 310.600 170.829 309.300 C 169.994 308.072,169.600 307.725,169.600 308.217 M70.472 314.667 L 70.400 318.734 73.500 322.048 C 77.877 326.729,79.724 328.567,79.550 328.072 C 79.468 327.837,78.050 326.235,76.400 324.512 C 70.512 318.365,71.029 319.269,70.772 314.676 L 70.545 310.600 70.472 314.667 M173.203 313.100 C 174.109 314.365,175.256 315.891,175.753 316.490 C 176.250 317.090,177.813 319.200,179.228 321.179 C 180.643 323.158,181.957 324.783,182.149 324.789 C 182.341 324.795,182.319 324.575,182.101 324.300 C 181.882 324.025,179.507 320.875,176.822 317.300 C 172.125 311.046,169.799 308.346,173.203 313.100 M220.416 314.377 C 219.937 315.050,219.693 315.594,219.873 315.587 C 220.311 315.571,221.731 313.598,221.483 313.350 C 221.375 313.242,220.895 313.704,220.416 314.377 M216.781 319.300 C 215.395 321.115,214.090 322.825,213.882 323.100 C 213.673 323.375,213.659 323.593,213.851 323.585 C 214.043 323.576,214.672 322.901,215.250 322.085 C 215.827 321.268,217.052 319.565,217.972 318.300 C 220.491 314.835,219.652 315.539,216.781 319.300 M208.931 329.834 C 206.549 333.043,204.330 335.990,204.000 336.383 C 203.670 336.775,202.230 338.744,200.800 340.757 C 198.665 343.763,198.041 344.391,197.312 344.267 C 196.824 344.184,196.519 344.270,196.636 344.458 C 197.190 345.355,198.403 344.600,200.104 342.300 C 201.121 340.925,203.178 338.162,204.676 336.161 C 206.174 334.159,208.127 331.549,209.016 330.361 C 212.136 326.188,213.666 324.000,213.465 324.000 C 213.353 324.000,211.312 326.625,208.931 329.834 M183.843 327.300 C 184.675 328.455,185.895 330.120,186.555 331.000 C 187.214 331.880,187.810 332.675,187.877 332.767 C 187.945 332.858,188.083 332.851,188.184 332.749 C 188.285 332.648,187.929 332.033,187.392 331.383 C 186.058 329.767,185.994 329.683,184.260 327.300 C 183.420 326.145,182.642 325.200,182.532 325.200 C 182.422 325.200,183.012 326.145,183.843 327.300 M82.647 331.578 C 83.333 332.360,85.873 335.070,88.292 337.600 C 90.711 340.130,93.588 343.145,94.685 344.300 C 95.783 345.455,96.822 346.400,96.994 346.400 C 97.316 346.400,94.034 342.941,85.967 334.778 C 83.455 332.236,81.961 330.796,82.647 331.578 M116.798 348.600 L 116.600 366.600 114.396 364.400 C 113.183 363.190,109.313 359.154,105.796 355.432 C 97.981 347.162,97.626 346.800,97.315 346.800 C 97.178 346.800,97.205 346.935,97.373 347.100 C 97.542 347.265,100.137 350.002,103.140 353.183 C 113.689 364.357,116.550 367.210,116.878 366.882 C 117.060 366.700,117.161 358.463,117.102 348.576 L 116.996 330.600 116.798 348.600 M188.406 333.500 C 188.410 333.665,188.905 334.363,189.506 335.050 C 190.108 335.738,191.770 337.940,193.200 339.944 C 194.630 341.948,195.951 343.590,196.135 343.594 C 196.319 343.597,195.892 342.835,195.187 341.900 C 194.482 340.965,192.740 338.625,191.315 336.700 C 188.813 333.320,188.393 332.857,188.406 333.500 " stroke="none" fill="#a0a0a0" fill-rule="evenodd"></path><path id="path3" d="M70.977 54.117 C 70.868 54.401,70.833 57.416,70.900 60.817 L 71.022 67.000 71.111 60.493 L 71.200 53.986 104.300 54.139 C 122.505 54.224,138.210 54.403,139.200 54.539 C 140.570 54.726,140.427 54.650,138.600 54.218 C 135.200 53.415,71.283 53.319,70.977 54.117 M255.400 54.232 C 253.082 54.743,253.069 54.753,255.000 54.532 C 256.954 54.307,323.539 53.882,323.663 54.093 C 323.697 54.152,323.841 63.290,323.982 74.400 L 324.239 94.600 324.320 74.343 C 324.392 56.192,324.334 54.060,323.767 53.843 C 322.386 53.313,257.904 53.680,255.400 54.232 M142.600 55.200 C 142.736 55.420,143.242 55.587,143.724 55.572 C 144.569 55.545,144.571 55.531,143.800 55.200 C 142.699 54.727,142.308 54.727,142.600 55.200 M250.400 55.200 C 249.867 55.545,249.867 55.588,250.400 55.588 C 250.730 55.588,251.270 55.413,251.600 55.200 C 252.133 54.855,252.133 54.812,251.600 54.812 C 251.270 54.812,250.730 54.987,250.400 55.200 M146.346 56.216 C 147.086 56.537,147.986 56.792,148.346 56.782 C 148.706 56.773,148.280 56.505,147.400 56.188 C 145.327 55.442,144.606 55.460,146.346 56.216 M246.400 56.225 C 245.630 56.516,245.294 56.765,245.654 56.777 C 246.014 56.790,246.914 56.537,247.654 56.216 C 249.320 55.492,248.316 55.500,246.400 56.225 M154.200 59.152 C 155.960 59.981,158.182 61.154,159.138 61.759 C 160.094 62.363,160.962 62.771,161.068 62.665 C 161.308 62.426,156.981 59.989,153.889 58.622 C 150.356 57.060,150.585 57.450,154.200 59.152 M240.442 58.437 C 239.475 58.866,238.768 59.302,238.872 59.406 C 238.976 59.510,239.948 59.155,241.031 58.618 C 243.374 57.457,242.948 57.325,240.442 58.437 M232.583 62.782 C 230.832 63.873,228.410 65.687,227.200 66.814 L 225.000 68.863 227.200 67.132 C 228.410 66.179,229.490 65.300,229.600 65.178 C 229.710 65.057,231.195 64.080,232.900 63.009 C 235.645 61.284,236.298 60.800,235.883 60.800 C 235.819 60.800,234.334 61.692,232.583 62.782 M161.600 63.076 C 161.600 63.269,162.185 63.766,162.900 64.180 C 166.882 66.486,175.881 75.549,177.318 78.700 C 177.544 79.195,177.896 79.600,178.102 79.600 C 178.458 79.600,176.672 76.920,174.719 74.522 C 173.537 73.071,168.129 67.663,166.678 66.481 C 164.336 64.573,161.600 62.739,161.600 63.076 M222.107 71.490 C 218.221 75.867,215.553 79.445,214.047 82.300 C 213.202 83.901,213.893 83.253,214.946 81.457 C 216.443 78.901,220.422 73.717,222.780 71.250 C 223.910 70.068,224.762 69.029,224.674 68.940 C 224.585 68.852,223.430 69.999,222.107 71.490 M179.688 82.300 C 179.772 82.465,180.679 84.310,181.701 86.400 C 182.724 88.490,183.570 90.001,183.581 89.757 C 183.606 89.175,180.085 82.000,179.773 82.000 C 179.641 82.000,179.603 82.135,179.688 82.300 M211.200 87.639 C 211.200 87.734,210.843 88.787,210.407 89.980 C 209.971 91.172,209.677 92.211,209.754 92.287 C 209.830 92.363,210.115 91.835,210.387 91.113 C 210.658 90.391,211.073 89.395,211.308 88.901 C 211.542 88.406,211.614 87.881,211.467 87.734 C 211.320 87.587,211.200 87.544,211.200 87.639 M184.461 92.800 C 184.461 93.130,184.703 94.030,185.000 94.800 C 185.297 95.570,185.539 95.930,185.539 95.600 C 185.539 95.270,185.297 94.370,185.000 93.600 C 184.703 92.830,184.461 92.470,184.461 92.800 M209.246 93.067 C 209.221 93.324,209.084 93.864,208.941 94.267 C 208.740 94.836,208.794 94.897,209.179 94.542 C 209.452 94.291,209.589 93.751,209.484 93.342 C 209.379 92.934,209.272 92.810,209.246 93.067 M70.597 192.400 C 70.597 246.850,70.643 269.125,70.700 241.900 C 70.757 214.675,70.757 170.125,70.700 142.900 C 70.643 115.675,70.597 137.950,70.597 192.400 M208.305 96.400 C 208.154 97.170,207.930 98.250,207.807 98.800 C 207.684 99.350,207.864 99.080,208.206 98.200 C 208.548 97.320,208.772 96.240,208.704 95.800 C 208.621 95.274,208.485 95.480,208.305 96.400 M185.634 97.400 C 185.622 97.840,185.787 98.470,186.000 98.800 C 186.514 99.595,186.514 98.596,186.000 97.400 L 185.656 96.600 185.634 97.400 M186.715 102.200 C 186.870 103.740,186.997 107.520,186.997 110.600 C 186.997 113.680,186.870 117.460,186.715 119.000 L 186.432 121.800 186.899 119.400 C 187.156 118.080,187.366 114.120,187.366 110.600 C 187.366 107.080,187.156 103.120,186.899 101.800 L 186.432 99.400 186.715 102.200 M207.015 103.015 C 206.861 104.254,206.824 105.357,206.934 105.467 C 207.044 105.577,207.261 104.654,207.415 103.415 C 207.570 102.177,207.607 101.073,207.497 100.963 C 207.387 100.853,207.170 101.777,207.015 103.015 M206.550 110.600 C 206.551 113.020,206.616 113.958,206.696 112.685 C 206.776 111.412,206.775 109.432,206.694 108.285 C 206.614 107.138,206.549 108.180,206.550 110.600 M206.870 116.400 C 206.857 116.950,206.995 118.120,207.177 119.000 L 207.508 120.600 207.507 119.200 C 207.505 117.435,206.909 114.812,206.870 116.400 M207.648 121.800 C 207.641 122.020,207.885 123.100,208.191 124.200 C 208.512 125.358,208.745 125.779,208.743 125.200 C 208.739 124.255,207.675 120.950,207.648 121.800 M185.873 122.553 C 185.723 122.945,185.611 123.566,185.625 123.933 C 185.642 124.375,185.781 124.274,186.037 123.634 C 186.249 123.103,186.361 122.482,186.285 122.254 C 186.209 122.027,186.024 122.161,185.873 122.553 M184.836 126.836 C 184.566 127.739,184.418 128.552,184.508 128.642 C 184.598 128.732,184.893 128.066,185.164 127.164 C 185.434 126.261,185.582 125.448,185.492 125.358 C 185.402 125.268,185.107 125.934,184.836 126.836 M209.627 129.047 C 209.587 129.709,211.282 133.651,211.510 133.424 C 211.617 133.316,211.442 132.637,211.120 131.914 C 210.798 131.191,210.337 130.150,210.095 129.600 C 209.852 129.050,209.642 128.801,209.627 129.047 M182.900 132.293 C 182.188 133.811,182.284 134.433,183.013 133.033 C 183.348 132.391,183.572 131.722,183.511 131.546 C 183.450 131.370,183.175 131.706,182.900 132.293 M181.180 136.039 C 180.720 136.940,180.413 137.746,180.497 137.830 C 180.581 137.914,181.041 137.176,181.519 136.191 C 182.609 133.947,182.315 133.815,181.180 136.039 M213.600 138.116 C 213.600 138.507,217.151 144.000,217.404 144.000 C 217.518 144.000,216.860 142.785,215.940 141.300 C 214.168 138.440,213.600 137.667,213.600 138.116 M178.800 140.200 C 178.517 140.541,178.376 140.909,178.486 141.019 C 178.596 141.129,178.917 140.941,179.200 140.600 C 179.483 140.259,179.624 139.891,179.514 139.781 C 179.404 139.671,179.083 139.859,178.800 140.200 M176.400 144.000 C 175.930 144.660,175.636 145.200,175.746 145.200 C 175.856 145.200,176.330 144.660,176.800 144.000 C 177.270 143.340,177.564 142.800,177.454 142.800 C 177.344 142.800,176.870 143.340,176.400 144.000 M219.094 146.372 C 219.922 147.456,220.839 148.446,221.130 148.571 C 221.422 148.696,220.815 147.808,219.781 146.599 C 217.447 143.867,217.091 143.749,219.094 146.372 M174.800 145.947 C 174.800 146.376,168.694 152.679,166.850 154.153 C 166.107 154.747,165.574 155.307,165.665 155.399 C 165.925 155.658,171.602 150.352,173.736 147.854 C 174.795 146.614,175.468 145.600,175.231 145.600 C 174.994 145.600,174.800 145.756,174.800 145.947 M223.600 151.305 C 227.327 154.853,232.400 158.778,232.400 158.113 C 232.400 157.926,231.815 157.432,231.100 157.016 C 230.385 156.601,229.710 156.157,229.600 156.030 C 229.490 155.904,228.500 155.080,227.400 154.201 C 226.300 153.321,224.651 151.836,223.736 150.901 C 222.820 149.965,221.920 149.202,221.736 149.205 C 221.551 149.208,222.390 150.153,223.600 151.305 M162.400 157.458 C 159.461 159.508,158.964 159.935,160.373 159.201 C 162.158 158.270,165.882 155.451,165.100 155.622 C 165.045 155.634,163.830 156.460,162.400 157.458 M157.462 160.447 C 156.616 160.893,156.009 161.342,156.112 161.445 C 156.302 161.636,159.200 160.055,159.200 159.760 C 159.200 159.534,159.171 159.545,157.462 160.447 M237.200 161.024 C 237.200 161.110,237.740 161.459,238.400 161.800 C 239.060 162.141,239.600 162.275,239.600 162.098 C 239.600 161.921,239.060 161.572,238.400 161.322 C 237.740 161.073,237.200 160.939,237.200 161.024 M152.176 162.987 C 151.166 163.751,151.604 163.759,153.054 163.002 C 153.684 162.674,153.919 162.404,153.576 162.402 C 153.234 162.401,152.604 162.664,152.176 162.987 M240.946 163.002 C 242.396 163.759,242.834 163.751,241.824 162.987 C 241.396 162.664,240.766 162.401,240.424 162.402 C 240.081 162.404,240.316 162.674,240.946 163.002 M146.200 165.014 C 144.659 165.720,145.760 165.709,147.600 165.000 C 148.476 164.663,148.700 164.462,148.200 164.463 C 147.760 164.464,146.860 164.712,146.200 165.014 M246.400 165.000 C 248.295 165.730,249.341 165.717,247.654 164.984 C 246.914 164.663,246.014 164.414,245.654 164.430 C 245.294 164.447,245.630 164.703,246.400 165.000 M142.400 166.000 C 141.636 166.494,142.458 166.494,144.000 166.000 L 145.000 165.680 144.000 165.646 C 143.450 165.627,142.730 165.787,142.400 166.000 M250.200 166.000 C 251.396 166.514,252.395 166.514,251.600 166.000 C 251.270 165.787,250.640 165.622,250.200 165.634 L 249.400 165.656 250.200 166.000 M121.413 166.779 C 121.099 167.288,121.654 168.344,123.895 171.500 C 126.455 175.105,126.390 174.576,123.801 170.731 C 121.189 166.851,121.154 166.669,123.100 167.082 C 125.335 167.556,136.645 167.426,139.400 166.895 L 141.800 166.432 139.000 166.715 C 135.242 167.095,124.962 167.077,123.131 166.688 C 122.229 166.496,121.566 166.531,121.413 166.779 M255.800 167.031 C 259.038 167.661,269.171 167.624,272.364 166.970 C 273.525 166.732,273.690 166.788,273.476 167.345 C 273.338 167.705,273.413 168.000,273.642 168.000 C 273.871 168.000,273.994 167.685,273.915 167.300 C 273.793 166.706,273.441 166.630,271.586 166.799 C 268.297 167.099,258.151 167.040,255.200 166.704 C 252.688 166.419,252.709 166.430,255.800 167.031 M271.642 170.201 C 270.932 171.190,270.496 171.993,270.675 171.985 C 271.069 171.966,273.316 168.783,273.093 168.560 C 273.006 168.473,272.353 169.211,271.642 170.201 M269.110 173.700 C 268.568 174.415,267.647 175.720,267.062 176.600 C 266.478 177.480,264.916 179.730,263.591 181.600 C 259.705 187.085,257.053 191.046,257.698 190.400 C 258.028 190.070,260.568 186.560,263.342 182.600 C 266.116 178.640,268.538 175.215,268.725 174.990 C 269.436 174.129,270.483 172.400,270.293 172.400 C 270.184 172.400,269.652 172.985,269.110 173.700 M128.289 177.700 C 128.501 177.975,131.332 181.935,134.578 186.500 C 137.824 191.065,140.574 194.800,140.689 194.800 C 140.804 194.800,140.724 194.575,140.511 194.300 C 140.299 194.025,137.468 190.065,134.222 185.500 C 130.976 180.935,128.226 177.200,128.111 177.200 C 127.996 177.200,128.076 177.425,128.289 177.700 M252.359 197.500 C 249.488 201.526,249.039 202.249,250.296 200.819 C 251.486 199.464,255.295 194.000,255.048 194.000 C 254.942 194.000,253.731 195.575,252.359 197.500 M141.600 196.400 C 142.070 197.060,142.544 197.600,142.654 197.600 C 142.764 197.600,142.470 197.060,142.000 196.400 C 141.530 195.740,141.056 195.200,140.946 195.200 C 140.836 195.200,141.130 195.740,141.600 196.400 M143.600 199.200 C 144.070 199.860,144.544 200.400,144.654 200.400 C 144.764 200.400,144.470 199.860,144.000 199.200 C 143.530 198.540,143.056 198.000,142.946 198.000 C 142.836 198.000,143.130 198.540,143.600 199.200 M146.783 203.700 C 147.897 205.295,149.277 207.140,149.849 207.800 L 150.889 209.000 149.918 207.600 C 146.966 203.339,145.108 200.800,144.944 200.800 C 144.841 200.800,145.669 202.105,146.783 203.700 M248.000 203.600 C 247.530 204.260,247.236 204.800,247.346 204.800 C 247.456 204.800,247.930 204.260,248.400 203.600 C 248.870 202.940,249.164 202.400,249.054 202.400 C 248.944 202.400,248.470 202.940,248.000 203.600 M246.000 206.400 C 245.530 207.060,245.236 207.600,245.346 207.600 C 245.456 207.600,245.930 207.060,246.400 206.400 C 246.870 205.740,247.164 205.200,247.054 205.200 C 246.944 205.200,246.470 205.740,246.000 206.400 M239.967 214.900 C 237.266 218.695,234.617 222.385,234.080 223.100 C 233.544 223.815,233.207 224.400,233.332 224.400 C 233.457 224.400,236.027 220.935,239.044 216.700 C 242.061 212.465,244.702 208.775,244.914 208.500 C 245.125 208.225,245.204 208.000,245.089 208.000 C 244.974 208.000,242.669 211.105,239.967 214.900 M153.088 212.500 C 153.301 212.775,155.230 215.475,157.376 218.500 C 159.522 221.525,161.372 224.000,161.488 224.000 C 161.603 224.000,161.524 223.775,161.312 223.500 C 161.099 223.225,159.170 220.525,157.024 217.500 C 154.878 214.475,153.028 212.000,152.912 212.000 C 152.797 212.000,152.876 212.225,153.088 212.500 M162.474 225.700 C 163.008 226.415,164.571 228.575,165.949 230.500 C 167.327 232.425,168.554 234.000,168.675 234.000 C 168.796 234.000,168.459 233.415,167.926 232.700 C 167.392 231.985,165.829 229.825,164.451 227.900 C 163.073 225.975,161.846 224.400,161.725 224.400 C 161.604 224.400,161.941 224.985,162.474 225.700 M230.463 228.000 C 229.975 228.660,229.723 229.200,229.902 229.200 C 230.081 229.200,230.546 228.660,230.936 228.000 C 231.326 227.340,231.579 226.800,231.498 226.800 C 231.417 226.800,230.951 227.340,230.463 228.000 M225.794 234.489 C 223.859 237.190,222.101 239.625,221.889 239.900 C 221.671 240.181,221.661 240.400,221.865 240.400 C 222.064 240.400,222.573 239.815,222.994 239.100 C 223.698 237.906,225.669 235.164,227.000 233.526 C 227.301 233.156,227.870 232.346,228.264 231.726 C 228.659 231.107,229.160 230.475,229.379 230.322 C 229.598 230.169,229.672 229.939,229.544 229.811 C 229.417 229.683,227.729 231.789,225.794 234.489 M170.665 237.009 C 174.749 242.939,175.811 244.370,176.138 244.385 C 176.324 244.393,175.822 243.545,175.022 242.500 C 174.223 241.455,173.122 239.923,172.576 239.095 C 172.030 238.267,171.327 237.277,171.013 236.895 C 169.047 234.499,168.957 234.529,170.665 237.009 M116.998 237.700 C 116.878 238.195,116.830 252.910,116.892 270.400 L 117.005 302.200 117.102 269.967 C 117.156 252.238,117.312 237.621,117.449 237.484 C 117.586 237.347,118.679 238.577,119.877 240.217 C 121.075 241.858,122.148 243.200,122.262 243.200 C 122.376 243.200,121.896 242.435,121.196 241.500 C 120.495 240.565,119.466 239.125,118.908 238.300 C 117.740 236.573,117.303 236.436,116.998 237.700 M275.600 239.200 C 275.130 239.860,274.836 240.400,274.946 240.400 C 275.056 240.400,275.530 239.860,276.000 239.200 C 276.470 238.540,276.764 238.000,276.654 238.000 C 276.544 238.000,276.070 238.540,275.600 239.200 M278.148 242.400 C 278.148 244.710,278.214 245.655,278.295 244.500 C 278.376 243.345,278.376 241.455,278.295 240.300 C 278.214 239.145,278.148 240.090,278.148 242.400 M220.400 242.000 C 219.930 242.660,219.636 243.200,219.746 243.200 C 219.856 243.200,220.330 242.660,220.800 242.000 C 221.270 241.340,221.564 240.800,221.454 240.800 C 221.344 240.800,220.870 241.340,220.400 242.000 M272.735 242.915 C 271.929 244.062,270.699 245.765,270.000 246.700 C 269.302 247.635,268.807 248.400,268.901 248.400 C 268.994 248.400,270.209 246.915,271.600 245.100 C 272.991 243.285,274.302 241.575,274.513 241.300 C 274.725 241.025,274.741 240.807,274.549 240.815 C 274.357 240.824,273.541 241.769,272.735 242.915 M216.749 247.100 C 215.371 249.025,213.808 251.185,213.274 251.900 C 212.741 252.615,212.404 253.200,212.525 253.200 C 212.646 253.200,213.873 251.625,215.251 249.700 C 216.629 247.775,218.192 245.615,218.726 244.900 C 219.259 244.185,219.596 243.600,219.475 243.600 C 219.354 243.600,218.127 245.175,216.749 247.100 M127.040 249.900 C 129.144 252.705,131.017 255.269,131.203 255.597 C 131.388 255.925,131.626 256.105,131.730 255.997 C 131.958 255.762,123.929 244.849,123.507 244.820 C 123.347 244.809,124.936 247.095,127.040 249.900 M177.064 246.000 C 177.454 246.660,177.926 247.200,178.113 247.200 C 178.301 247.200,178.070 246.660,177.600 246.000 C 177.130 245.340,176.658 244.800,176.550 244.800 C 176.443 244.800,176.674 245.340,177.064 246.000 M179.119 248.797 C 179.493 249.456,179.947 249.996,180.127 249.997 C 180.307 249.999,180.070 249.460,179.600 248.800 C 178.502 247.258,178.242 247.257,179.119 248.797 M267.923 249.500 C 267.160 250.389,266.695 251.200,266.949 251.200 C 267.057 251.200,267.530 250.660,268.000 250.000 C 268.932 248.691,268.884 248.381,267.923 249.500 M181.119 251.597 C 181.493 252.256,181.947 252.796,182.127 252.797 C 182.307 252.799,182.070 252.260,181.600 251.600 C 180.502 250.058,180.242 250.057,181.119 251.597 M264.731 253.705 C 263.923 254.857,262.692 256.565,261.996 257.500 C 261.300 258.435,260.817 259.200,260.922 259.200 C 261.027 259.200,262.384 257.490,263.938 255.400 C 265.493 253.310,266.637 251.602,266.482 251.605 C 266.327 251.607,265.539 252.552,264.731 253.705 M183.616 254.963 C 184.368 256.009,185.156 256.973,185.367 257.103 C 185.578 257.233,185.135 256.484,184.384 255.437 C 183.632 254.391,182.844 253.427,182.633 253.297 C 182.422 253.167,182.865 253.916,183.616 254.963 M209.854 256.573 C 208.919 258.000,209.046 258.304,210.046 257.033 C 210.511 256.442,210.805 255.872,210.700 255.766 C 210.595 255.661,210.214 256.024,209.854 256.573 M132.256 256.800 C 132.486 257.130,134.075 259.290,135.788 261.600 C 137.501 263.910,138.988 266.025,139.094 266.300 C 139.199 266.575,139.462 266.800,139.677 266.800 C 139.992 266.800,138.423 264.380,136.695 262.200 C 136.521 261.980,135.559 260.720,134.558 259.400 C 132.875 257.181,131.220 255.311,132.256 256.800 M186.400 258.800 C 186.870 259.460,187.344 260.000,187.454 260.000 C 187.564 260.000,187.270 259.460,186.800 258.800 C 186.330 258.140,185.856 257.600,185.746 257.600 C 185.636 257.600,185.930 258.140,186.400 258.800 M278.058 311.538 C 278.144 344.368,278.347 365.767,278.572 365.907 C 278.911 366.116,289.951 354.936,289.985 354.349 C 289.999 354.113,286.598 357.565,281.464 363.000 C 279.985 364.565,279.092 365.239,278.898 364.938 C 278.734 364.684,278.535 340.474,278.457 311.138 C 278.378 281.802,278.224 257.710,278.115 257.600 C 278.006 257.490,277.980 281.762,278.058 311.538 M207.445 259.862 C 206.888 260.708,205.604 262.525,204.592 263.900 C 203.581 265.275,202.899 266.390,203.076 266.378 C 203.510 266.349,208.890 258.756,208.648 258.514 C 208.543 258.410,208.002 259.016,207.445 259.862 M258.200 262.475 C 256.378 265.082,253.359 269.161,252.461 270.230 C 251.175 271.759,249.182 274.800,249.465 274.800 C 249.653 274.800,250.297 274.035,250.896 273.100 C 251.496 272.165,253.416 269.510,255.163 267.200 C 260.265 260.453,260.868 259.600,260.525 259.606 C 260.346 259.610,259.300 260.901,258.200 262.475 M189.583 263.300 C 190.697 264.895,192.077 266.740,192.649 267.400 L 193.689 268.600 192.718 267.200 C 189.766 262.939,187.908 260.400,187.744 260.400 C 187.641 260.400,188.469 261.705,189.583 263.300 M201.616 267.977 C 201.137 268.650,200.893 269.194,201.073 269.187 C 201.511 269.171,202.931 267.198,202.683 266.950 C 202.575 266.842,202.095 267.304,201.616 267.977 M142.848 271.222 C 143.782 272.553,144.716 273.748,144.924 273.876 C 145.402 274.172,145.022 273.563,143.062 270.894 C 140.936 267.997,140.767 268.255,142.848 271.222 M194.400 270.000 C 195.498 271.542,195.758 271.543,194.881 270.003 C 194.507 269.344,194.053 268.804,193.873 268.803 C 193.693 268.801,193.930 269.340,194.400 270.000 M199.326 271.212 C 198.467 272.440,197.986 272.786,197.300 272.667 C 196.295 272.493,196.071 272.988,196.995 273.343 C 197.647 273.593,199.033 272.421,200.122 270.700 C 201.190 269.013,200.595 269.395,199.326 271.212 M147.465 277.400 C 148.691 279.050,149.778 280.400,149.881 280.400 C 149.984 280.400,149.386 279.455,148.552 278.300 C 147.718 277.145,146.757 275.801,146.418 275.313 C 146.078 274.824,145.673 274.419,145.517 274.413 C 145.362 274.406,146.238 275.750,147.465 277.400 M248.515 275.700 C 246.781 277.967,245.866 279.320,246.209 279.113 C 246.681 278.827,249.337 275.200,249.074 275.200 C 248.977 275.200,248.726 275.425,248.515 275.700 M244.800 280.800 C 244.330 281.460,244.036 282.000,244.146 282.000 C 244.256 282.000,244.730 281.460,245.200 280.800 C 245.670 280.140,245.964 279.600,245.854 279.600 C 245.744 279.600,245.270 280.140,244.800 280.800 M151.254 282.533 C 151.985 283.596,152.740 284.563,152.931 284.681 C 153.516 285.043,152.493 283.482,151.173 282.000 L 149.926 280.600 151.254 282.533 M242.274 284.009 C 241.655 284.884,241.295 285.593,241.474 285.585 C 241.883 285.566,244.100 282.397,243.696 282.409 C 243.533 282.413,242.893 283.133,242.274 284.009 M155.439 288.200 C 156.681 289.850,157.781 291.200,157.883 291.200 C 157.985 291.200,157.496 290.435,156.795 289.500 C 156.094 288.565,155.134 287.217,154.660 286.505 C 154.187 285.793,153.661 285.208,153.490 285.205 C 153.320 285.202,154.197 286.550,155.439 288.200 M239.342 288.100 C 238.503 289.255,237.587 290.439,237.306 290.731 C 237.025 291.023,236.606 291.653,236.376 292.131 C 236.080 292.747,236.246 292.660,236.948 291.832 C 238.271 290.272,241.274 286.000,241.048 286.000 C 240.949 286.000,240.181 286.945,239.342 288.100 M324.095 304.046 C 323.986 319.935,324.501 317.830,319.418 323.149 C 315.788 326.947,314.902 327.902,313.200 329.853 C 312.430 330.735,314.184 329.014,317.097 326.028 C 320.010 323.043,322.847 319.957,323.402 319.171 L 324.411 317.742 324.300 303.971 L 324.189 290.200 324.095 304.046 M158.800 292.800 C 159.270 293.460,159.744 294.000,159.854 294.000 C 159.964 294.000,159.670 293.460,159.200 292.800 C 158.730 292.140,158.256 291.600,158.146 291.600 C 158.036 291.600,158.330 292.140,158.800 292.800 M234.782 294.113 C 231.848 298.328,231.270 299.235,232.178 298.200 C 233.826 296.321,236.030 293.199,235.699 293.213 C 235.535 293.219,235.122 293.624,234.782 294.113 M161.213 296.100 C 161.918 297.035,163.660 299.375,165.085 301.300 C 166.510 303.225,167.759 304.800,167.860 304.800 C 167.961 304.800,167.359 303.850,166.522 302.689 C 165.685 301.528,164.010 299.197,162.800 297.510 C 161.590 295.822,160.449 294.431,160.265 294.420 C 160.081 294.409,160.508 295.165,161.213 296.100 M229.455 301.500 C 228.657 302.545,227.615 303.904,227.141 304.520 C 225.202 307.037,223.158 310.133,224.050 309.200 C 224.577 308.650,225.334 307.691,225.733 307.069 C 226.132 306.447,226.796 305.547,227.209 305.069 C 228.301 303.804,231.273 299.600,231.076 299.600 C 230.983 299.600,230.254 300.455,229.455 301.500 M168.477 305.921 C 171.156 309.618,175.722 315.600,175.866 315.600 C 176.146 315.600,175.692 314.948,171.892 309.900 C 169.946 307.315,168.264 305.200,168.154 305.200 C 168.045 305.200,168.190 305.525,168.477 305.921 M70.860 313.676 C 70.827 316.248,70.935 318.436,71.100 318.539 C 71.265 318.641,71.349 316.987,71.287 314.862 C 71.116 308.990,70.927 308.464,70.860 313.676 M222.000 311.600 C 221.530 312.260,221.236 312.800,221.346 312.800 C 221.456 312.800,221.930 312.260,222.400 311.600 C 222.870 310.940,223.164 310.400,223.054 310.400 C 222.944 310.400,222.470 310.940,222.000 311.600 M219.400 314.897 C 218.740 315.822,217.515 317.528,216.678 318.689 C 215.841 319.850,215.241 320.800,215.344 320.800 C 215.447 320.800,216.216 319.855,217.053 318.700 C 217.889 317.545,218.671 316.510,218.789 316.400 C 219.481 315.758,221.188 313.201,220.920 313.209 C 220.744 313.213,220.060 313.973,219.400 314.897 M177.889 318.500 C 178.101 318.775,180.116 321.475,182.366 324.500 C 184.616 327.525,186.555 330.000,186.676 330.000 C 186.796 330.000,186.458 329.415,185.924 328.700 C 185.390 327.985,184.424 326.680,183.779 325.800 C 183.133 324.920,182.509 324.110,182.392 324.000 C 182.275 323.890,181.222 322.495,180.052 320.900 C 178.882 319.305,177.829 318.000,177.713 318.000 C 177.597 318.000,177.676 318.225,177.889 318.500 M73.431 321.300 C 74.533 322.455,76.777 324.755,78.417 326.411 C 81.465 329.488,79.797 327.566,75.175 322.675 C 73.759 321.176,72.540 319.781,72.467 319.575 C 72.393 319.369,72.129 319.200,71.880 319.200 C 71.631 319.200,72.329 320.145,73.431 321.300 M213.861 322.240 C 213.454 322.798,213.209 323.343,213.317 323.450 C 213.425 323.558,213.905 323.096,214.384 322.423 C 214.863 321.750,215.107 321.206,214.927 321.213 C 214.747 321.219,214.267 321.682,213.861 322.240 M209.932 327.689 C 207.522 330.955,206.658 332.378,208.144 330.632 C 209.466 329.080,212.476 324.800,212.246 324.800 C 212.146 324.800,211.105 326.100,209.932 327.689 M116.400 347.600 C 116.400 357.280,116.245 365.200,116.055 365.200 C 115.758 365.200,111.961 361.297,102.300 351.059 C 101.035 349.718,100.000 348.765,100.000 348.941 C 100.000 349.117,101.851 351.182,104.113 353.531 C 106.375 355.879,109.660 359.325,111.413 361.190 C 115.235 365.255,116.017 366.000,116.461 366.000 C 116.648 366.000,116.800 357.900,116.800 348.000 C 116.800 338.100,116.710 330.000,116.600 330.000 C 116.490 330.000,116.400 337.920,116.400 347.600 M188.012 332.074 C 188.719 333.104,189.830 334.544,190.479 335.274 L 191.661 336.600 190.419 334.800 C 189.736 333.810,188.625 332.370,187.951 331.600 L 186.726 330.200 188.012 332.074 M83.200 331.420 C 83.200 331.592,85.147 333.727,87.526 336.166 C 89.906 338.605,93.371 342.241,95.226 344.247 C 97.082 346.253,98.863 348.017,99.185 348.167 C 99.740 348.426,98.208 346.755,91.147 339.400 C 89.458 337.640,86.979 335.055,85.638 333.654 C 84.297 332.254,83.200 331.249,83.200 331.420 M205.474 333.609 C 204.021 335.663,204.298 335.658,205.952 333.600 C 206.659 332.720,207.094 332.004,206.919 332.009 C 206.743 332.013,206.093 332.733,205.474 333.609 M309.688 333.366 C 308.980 334.117,308.400 334.844,308.400 334.981 C 308.400 335.252,309.355 334.334,310.565 332.900 C 311.733 331.515,311.133 331.834,309.688 333.366 M305.600 337.618 C 294.552 349.401,293.392 350.677,297.620 346.400 C 305.598 338.328,308.157 335.623,307.979 335.448 C 307.881 335.351,306.810 336.327,305.600 337.618 M202.547 337.700 C 201.711 338.855,200.921 339.890,200.793 340.000 C 200.664 340.110,199.950 341.059,199.205 342.109 C 197.691 344.245,197.346 344.288,196.200 342.487 C 195.760 341.796,195.253 341.224,195.074 341.215 C 194.895 341.207,195.255 341.916,195.874 342.791 C 197.427 344.986,197.593 344.910,200.848 340.500 C 202.431 338.355,203.900 336.375,204.112 336.100 C 204.324 335.825,204.401 335.600,204.283 335.600 C 204.165 335.600,203.384 336.545,202.547 337.700 M192.816 338.563 C 193.568 339.609,194.356 340.573,194.567 340.703 C 194.778 340.833,194.335 340.084,193.584 339.037 C 192.832 337.991,192.044 337.027,191.833 336.897 C 191.622 336.767,192.065 337.516,192.816 338.563 M291.688 352.166 C 290.980 352.917,290.400 353.662,290.400 353.821 C 290.400 353.981,291.030 353.444,291.800 352.627 C 293.067 351.284,293.408 350.800,293.088 350.800 C 293.026 350.800,292.396 351.414,291.688 352.166 " stroke="none" fill="#747474" fill-rule="evenodd"></path><path id="path4" d="M70.581 79.400 C 70.580 87.320,70.634 90.617,70.699 86.726 C 70.765 82.835,70.765 76.355,70.700 72.326 C 70.634 68.297,70.581 71.480,70.581 79.400 M324.596 200.000 C 324.596 241.910,324.643 259.055,324.700 238.100 C 324.757 217.145,324.757 182.855,324.700 161.900 C 324.643 140.945,324.596 158.090,324.596 200.000 M70.573 301.000 C 70.573 306.500,70.630 308.805,70.699 306.123 C 70.768 303.441,70.768 298.941,70.699 296.123 C 70.630 293.305,70.574 295.500,70.573 301.000 M116.981 316.400 C 116.981 324.430,117.034 327.715,117.099 323.700 C 117.165 319.685,117.165 313.115,117.099 309.100 C 117.034 305.085,116.981 308.370,116.981 316.400 M90.000 338.925 C 90.000 338.994,90.585 339.579,91.300 340.225 L 92.600 341.400 91.425 340.100 C 90.330 338.888,90.000 338.616,90.000 338.925 M278.173 352.600 C 278.173 358.100,278.230 360.405,278.299 357.723 C 278.368 355.041,278.368 350.541,278.299 347.723 C 278.230 344.905,278.174 347.100,278.173 352.600 " stroke="none" fill="#7c7c7c" fill-rule="evenodd"></path></g></svg>